Coordinates
version=1
nRows=32
nColumns=18
inDegrees=yes

Units are S.I. units (second, meters, Newtons, ...)
If the header above contains a line with 'inDegrees', this indicates whether rotational values are in degrees (yes) or radians (no).

endheader
time	ground_thorax_rot_x	ground_thorax_rot_y	ground_thorax_rot_z	ground_thorax_tx	ground_thorax_ty	ground_thorax_tz	clav_prot	clav_elev	scapula_abduction	scapula_elevation	scapula_upward_rot	scapula_winging	plane_elv	shoulder_elv	axial_rot	elbow_flexion	pro_sup
      2.00000000	      0.51728761	    -10.70170287	      3.78936897	     -0.06636349	      0.05074697	      0.02719348	    -19.76165006	     -0.29651675	      8.48121954	     -7.98593985	     49.59675578	      6.47347930	    -26.00000000	     64.20727467	     26.03981179	     23.01037904	   -176.56175842
      2.02000000	      0.51728761	    -10.64481810	      3.66466487	     -0.06582127	      0.05033770	      0.02744623	    -19.70253679	     -0.58043563	      8.28136032	     -8.13822959	     49.21385630	      6.59382413	    -26.00000000	     64.25706934	     26.15575063	     23.32481163	   -176.67954566
      2.04000000	      0.51728761	    -10.58559801	      3.52920599	     -0.06524042	      0.04986673	      0.02771691	    -19.63771800	     -0.89690894	      8.05220162	     -8.30665420	     48.78095468	      6.73179189	    -26.00000000	     64.28548878	     26.21711900	     23.66649502	   -176.73191885
      2.06000000	      0.51728761	    -10.52930707	      3.41607626	     -0.06469431	      0.04933251	      0.02796987	    -19.56360872	     -1.21618108	      7.81980063	     -8.47360277	     48.32485828	      6.87501676	    -26.00000000	     64.24011575	     26.22473140	     23.96448755	   -176.72730702
      2.08000000	      0.51728761	    -10.42625975	      3.27661506	     -0.06409130	      0.04879922	      0.02823304	    -19.48987108	     -1.61986455	      7.50781376	     -8.68551458	     47.76447312	      7.06198009	    -26.00000000	     64.25748945	     26.18090045	     24.32992493	   -176.65727180
      2.10000000	      0.51728761	    -10.26906206	      3.12997305	     -0.06352319	      0.04822496	      0.02848318	    -19.41453514	     -2.07949828	      7.13175374	     -8.92448546	     47.11760705	      7.28357735	    -26.00000000	     64.30906268	     26.05407798	     24.72136091	   -176.49582730
      2.12000000	      0.51728761	     -9.96045852	      2.96737664	     -0.06296678	      0.04756753	      0.02868480	    -19.36747927	     -2.52476273	      6.53348253	     -9.13507861	     46.29338104	      7.53519861	    -26.00000000	     64.40138085	     25.21697465	     25.23260027	   -175.49299477
      2.14000000	      0.51728761	     -9.80456743	      2.78743409	     -0.06233472	      0.04691043	      0.02898810	    -19.30374862	     -3.04802905	      6.11458663	     -9.40712697	     45.59805576	      7.80160347	    -26.00000000	     64.34375516	     25.04328495	     25.56339695	   -175.13262266
      2.16000000	      0.51728761	     -9.63365262	      2.69563164	     -0.06189627	      0.04622552	      0.02930055	    -19.22354436	     -3.55675956	      5.67755180	     -9.66125094	     44.85119890	      8.07506280	    -26.00000000	     64.20604032	     24.79409725	     25.87440731	   -174.71969107
      2.18000000	      0.51728761	     -9.34778512	      2.52627547	     -0.06137156	      0.04550743	      0.02956294	    -19.17330013	     -4.14901255	      5.08296137	     -9.95400795	     43.96719617	      8.41321293	    -26.00000000	     64.17329861	     24.35340916	     26.24091013	   -174.01136291
      2.20000000	      0.51728761	     -8.99051103	      2.36937121	     -0.06084773	      0.04467443	      0.03001047	    -19.29143670	     -4.54392266	      4.23237924	    -10.12982124	     43.18255703	      8.70161145	    -26.00000000	     63.64738854	     22.86740802	     26.65045557	   -170.86907765
      2.22000000	      0.51728761	     -8.84608196	      2.26646484	     -0.06037674	      0.04388733	      0.03034311	    -19.17341649	     -5.11681485	      3.78936997	    -10.40356497	     42.32018879	      9.03528393	    -26.00000000	     63.40031819	     22.82667844	     26.83817623	   -170.59796728
      2.24000000	      0.51728761	     -8.56491450	      2.11250710	     -0.05991300	      0.04312824	      0.03062369	    -19.11510067	     -5.79520126	      3.15520051	    -10.73105879	     41.33085535	      9.45262543	    -26.00000000	     63.23608048	     22.57527737	     27.06233475	   -170.01912743
      2.26000000	      0.51728761	     -8.30218013	      1.96869161	     -0.05945222	      0.04230980	      0.03096397	    -19.07866484	     -6.42121342	      2.49595647	    -11.02335587	     40.36269045	      9.86154163	    -26.00000000	     62.91153402	     22.22021980	     27.24942348	   -169.26957622
      2.28000000	      0.51728761	     -7.86253510	      1.81052543	     -0.05896026	      0.04144532	      0.03140178	    -19.28266689	     -6.89904419	      1.44203052	    -11.23183009	     39.47065089	     10.25071810	    -26.00000000	     62.14288328	     21.14676235	     27.55354174	   -165.65069728
      2.30000000	      0.51728761	     -7.78469868	      1.68743692	     -0.05849166	      0.04051130	      0.03175450	    -19.15452978	     -7.46074660	      0.99816209	    -11.47855434	     38.55919465	     10.62484436	    -26.00000000	     61.60727271	     21.09769087	     27.53608998	   -165.46660094
      2.32000000	      0.51728761	     -7.53404671	      1.50985715	     -0.05800656	      0.03973922	      0.03206658	    -19.13939717	     -8.20066872	      0.26618942	    -11.82457067	     37.49061299	     11.13722738	    -26.00000000	     61.20040212	     20.93508108	     27.63076422	   -164.99381385
      2.34000000	      0.51728761	     -7.05085635	      1.32273339	     -0.05750184	      0.03892139	      0.03245530	    -19.39954931	     -8.78465197	     -0.91602441	    -12.08458226	     36.50669348	     11.62876795	    -26.00000000	     60.38662020	     20.33948426	     27.85092977	   -162.17635629
      2.36000000	      0.51728761	     -7.03631950	      1.17606076	     -0.05695918	      0.03793350	      0.03281891	    -19.27111582	     -9.30294223	     -1.37630267	    -12.28748520	     35.56255697	     12.01682665	    -26.00000000	     59.65491572	     20.32879519	     27.78644763	   -162.08431877
      2.38000000	      0.51728761	     -6.50639881	      0.94370459	     -0.05644016	      0.03726432	      0.03313788	    -19.58803246	    -10.05757065	     -2.66911669	    -12.64736446	     34.49258623	     12.63556982	    -26.00000000	     58.94831587	     20.11704634	     27.96670019	   -160.60261887
      2.40000000	      0.51728761	     -6.32103986	      0.72986653	     -0.05583146	      0.03644259	      0.03349074	    -19.61509586	    -10.73433219	     -3.47027003	    -12.93613005	     33.40392996	     13.17716832	    -26.00000000	     58.28204854	     20.16128450	     28.01403497	   -160.34528957
      2.42000000	      0.51728761	     -6.06363809	      0.52030208	     -0.05525059	      0.03562366	      0.03384312	    -19.74428115	    -11.35610127	     -4.41368776	    -13.19696995	     32.36758512	     13.71088906	    -26.00000000	     57.47661461	     20.24005992	     28.08330110	   -159.98005891
      2.44000000	      0.51728761	     -5.76649397	      0.30570943	     -0.05467241	      0.03476435	      0.03422341	    -19.94920610	    -11.89816395	     -5.43730171	    -13.41699947	     31.41108859	     14.21062272	    -26.00000000	     56.50086897	     20.40349088	     28.13902142	   -159.31849359
      2.46000000	      0.51728761	     -5.57796142	      0.08350607	     -0.05404354	      0.03394313	      0.03460131	    -20.03928263	    -12.51046511	     -6.33427419	    -13.65616492	     30.32699009	     14.75812173	    -26.00000000	     55.69339526	     20.63065979	     28.21385696	   -159.17889003
      2.48000000	      0.51728761	     -5.35125248	     -0.15478946	     -0.05342319	      0.03311275	      0.03498023	    -20.18687328	    -13.09067526	     -7.29072378	    -13.88183259	     29.29295332	     15.29737083	    -26.00000000	     54.80586070	     20.94941539	     28.27142117	   -159.11061166
      2.50000000	      0.51728761	     -5.14240626	     -0.39647261	     -0.05279755	      0.03226840	      0.03535540	    -20.32357576	    -13.65652949	     -8.22664134	    -14.09362189	     28.25335567	     15.83502025	    -26.00000000	     53.91939736	     21.32399803	     28.32243940	   -159.13053910
      2.52000000	      0.51728761	     -4.88874886	     -0.61989124	     -0.05223370	      0.03141209	      0.03574673	    -20.51202906	    -14.16884191	     -9.22926345	    -14.27504605	     27.25208614	     16.35070658	    -26.00000000	     52.96299903	     21.85713331	     28.38018024	   -159.25979851
      2.54000000	      0.51728761	     -4.67574054	     -0.85564839	     -0.05165207	      0.03055356	      0.03611964	    -20.66394712	    -14.68761303	    -10.16863650	    -14.45426431	     26.23489019	     16.87208825	    -26.00000000	     52.04343237	     22.40957085	     28.41571754	   -159.48009805
      2.56000000	      0.51728761	     -4.48186890	     -1.10822726	     -0.05107311	      0.02969872	      0.03649614	    -20.80168224	    -15.21073901	    -11.07420884	    -14.63344033	     25.21499634	     17.39946489	    -26.00000000	     51.14157687	     22.98828217	     28.43780625	   -159.74155177
      2.58000000	      0.51728761	     -4.27966463	     -1.34226662	     -0.05054474	      0.02880964	      0.03683796	    -20.94251800	    -15.69005480	    -11.96725673	    -14.78500905	     24.22252882	     17.90147757	    -26.00000000	     50.21252639	     23.63652456	     28.42904949	   -160.07064160
      2.60000000	      0.51728761	     -4.41661614	     -1.55721957	     -0.04995339	      0.02761490	      0.03718426	    -20.73989534	    -15.92387285	    -12.26259789	    -14.75458304	     23.29606132	     18.18943130	    -26.00000000	     49.20354655	     23.78998961	     28.36505389	   -160.17617076
      2.62000000	      0.51728761	     -3.91338542	     -1.80210554	     -0.04957317	      0.02702627	      0.03743334	    -21.17833895	    -16.60957807	    -13.63916420	    -15.05744070	     22.26063036	     18.88128363	    -26.00000000	     48.37178117	     24.96517655	     28.30563051	   -160.68581939
